<svg xmlns="http://www.w3.org/2000/svg" width="1600" height="1100" viewBox="0 0 1600 1100"><defs><linearGradient id="s" x2="0" y2="1"><stop stop-color="#dbdfd1"/><stop offset="1" stop-color="#eee7d6"/></linearGradient><linearGradient id="w" x2="0" y2="1"><stop stop-color="#7b9a88"/><stop offset="1" stop-color="#324e45"/></linearGradient></defs><path fill="url(#s)" d="M0 0h1600v1100H0z"/><circle cx="1170" cy="230" r="100" fill="#f6efdb" opacity=".7"/><path fill="#89978b" d="M0 620 260 330 430 470 700 190 1020 490 1240 280 1600 610v490H0z"/><path fill="#e7e9dc" opacity=".7" d="m570 355 130-165 158 148-119-57-43 33-25-48z m582 30 88-105 90 122-83-48z"/><path fill="url(#w)" d="M0 670Q400 590 800 690T1600 630v470H0z"/><path fill="#324e45" opacity=".65" d="M0 860q260-200 550 30T1600 830v270H0z"/><path stroke="#f6efdb" opacity=".25" stroke-width="2" fill="none" d="M480 745h560m-420 25h280m-170 40h430"/></svg>
